<svg xmlns="http://www.w3.org/2000/svg" viewBox="0 0 256 256" width="256" height="256" role="img" aria-labelledby="title">
  <title>LoopPal Bass Guitar Icon</title>
  <defs>
    <linearGradient id="body" x1="0" y1="0" x2="1" y2="1">
      <stop offset="0%" stop-color="#d8c08a"/>
      <stop offset="100%" stop-color="#9f7a43"/>
    </linearGradient>
    <linearGradient id="neck" x1="0" y1="0" x2="1" y2="1">
      <stop offset="0%" stop-color="#f3e2bf"/>
      <stop offset="100%" stop-color="#dbc18c"/>
    </linearGradient>
  </defs>
  <rect width="256" height="256" rx="56" fill="#1a2535"/>
  <g transform="translate(42 48)">
    <ellipse cx="88" cy="120" rx="86" ry="62" fill="url(#body)" />
    <path d="M72 128 C92 112 118 112 138 128 L138 70 C138 36 112 12 86 12 C60 12 34 36 34 70 L34 160 C34 174 42 186 58 186 C74 186 94 176 94 160"
      fill="url(#body)"/>
    <circle cx="86" cy="128" r="17" fill="#111a28" stroke="#ffd98b" stroke-width="8"/>
    <circle cx="58" cy="160" r="17" fill="#111a28" stroke="#ffd98b" stroke-width="8"/>
    <path d="M58 174 C44 182 28 178 22 164 C18 154 18 142 24 132"
      fill="none" stroke="#2b3a50" stroke-width="12" stroke-linecap="round"/>
    <rect x="86" y="34" width="20" height="104" rx="10" transform="rotate(-12 86 34)" fill="url(#neck)"/>
    <rect x="76" y="10" width="15" height="110" rx="7" transform="rotate(-12 76 10)" fill="#f7d8a5"/>
    <circle cx="124" cy="38" r="14" fill="#0f1823" stroke="#f3d8a6" stroke-width="6"/>
    <rect x="130" y="28" width="64" height="18" rx="8" transform="rotate(58 130 28)" fill="#2a3b56"/>
    <rect x="110" y="44" width="54" height="12" rx="6" transform="rotate(58 110 44)" fill="#2a3b56"/>
    <rect x="90" y="60" width="47" height="12" rx="6" transform="rotate(58 90 60)" fill="#2a3b56"/>
    <rect x="70" y="76" width="40" height="12" rx="6" transform="rotate(58 70 76)" fill="#2a3b56"/>
    <circle cx="120" cy="34" r="6" fill="#f6dd9f"/>
    <circle cx="116" cy="42" r="4" fill="#f6dd9f"/>
  </g>
</svg>
